<svg width="64" height="64" viewBox="0 0 64 64" fill="none" xmlns="http://www.w3.org/2000/svg">
<path d="M34.5199 25.985C34.4217 25.9855 34.3244 25.9667 34.2335 25.9295C34.1426 25.8923 34.0599 25.8375 33.9902 25.7683C33.9205 25.6991 33.8652 25.6168 33.8274 25.5261C33.7896 25.4354 33.7701 25.3382 33.7699 25.24V25.23C33.7697 25.1687 33.7771 25.1075 33.7919 25.048C33.9548 24.3874 33.914 23.693 33.6749 23.056C33.6338 22.9427 33.6206 22.8212 33.6364 22.7017C33.6522 22.5822 33.6965 22.4683 33.7657 22.3696C33.8349 22.2709 33.9268 22.1903 34.0337 22.1347C34.1407 22.079 34.2594 22.05 34.3799 22.05H40.3399C40.5389 22.05 40.7296 22.129 40.8703 22.2697C41.0109 22.4103 41.0899 22.6011 41.0899 22.8C41.0899 22.9989 41.0109 23.1897 40.8703 23.3303C40.7296 23.471 40.5389 23.55 40.3399 23.55H35.3399C35.3728 23.7718 35.3895 23.9958 35.3899 24.22C35.3911 24.6151 35.3448 25.0089 35.2519 25.393C35.2152 25.5601 35.1227 25.7097 34.9897 25.8173C34.8567 25.9249 34.691 25.984 34.5199 25.985ZM22.7399 23.55H20.6899C20.491 23.55 20.3003 23.471 20.1596 23.3303C20.019 23.1897 19.9399 22.9989 19.9399 22.8V4C19.9399 3.80109 20.019 3.61032 20.1596 3.46967C20.3003 3.32902 20.491 3.25 20.6899 3.25H40.3399C40.5389 3.25 40.7296 3.32902 40.8703 3.46967C41.0109 3.61032 41.0899 3.80109 41.0899 4C41.0899 4.19891 41.0109 4.38968 40.8703 4.53033C40.7296 4.67098 40.5389 4.75 40.3399 4.75H21.4399V22.05H22.7399C22.9389 22.05 23.1296 22.129 23.2703 22.2697C23.4109 22.4103 23.4899 22.6011 23.4899 22.8C23.4899 22.9989 23.4109 23.1897 23.2703 23.3303C23.1296 23.471 22.9389 23.55 22.7399 23.55Z" fill="#FC620E"/>
<path d="M60 24.95C59.9025 24.9523 59.8056 24.9351 59.7149 24.8994C59.6242 24.8638 59.5415 24.8104 59.4717 24.7425C59.4019 24.6745 59.3463 24.5933 59.3082 24.5036C59.2701 24.4139 59.2503 24.3175 59.25 24.22V4.75H41.09V10.24C41.09 10.4389 41.0109 10.6297 40.8703 10.7703C40.7296 10.911 40.5389 10.99 40.34 10.99C40.1411 10.99 39.9503 10.911 39.8096 10.7703C39.669 10.6297 39.59 10.4389 39.59 10.24V4C39.59 3.80109 39.669 3.61032 39.8096 3.46967C39.9503 3.32902 40.1411 3.25 40.34 3.25H60C60.1989 3.25 60.3896 3.32902 60.5303 3.46967C60.6709 3.61032 60.75 3.80109 60.75 4V24.18C60.7505 24.381 60.6723 24.5741 60.5321 24.7181C60.3919 24.862 60.2009 24.9453 60 24.95Z" fill="#FC620E"/>
<path d="M34.62 15.0002C34.4211 15.0002 34.2303 14.9212 34.0897 14.7805C33.949 14.6399 33.87 14.4491 33.87 14.2502C33.87 12.9179 34.3986 11.64 35.3397 10.697C36.2809 9.75398 37.5577 9.22286 38.89 9.22021C39.4708 9.22691 40.0461 9.33311 40.591 9.53421C40.7758 9.60286 40.9261 9.74151 41.0095 9.92015C41.0928 10.0988 41.1025 10.3031 41.0364 10.4888C40.9703 10.6745 40.8337 10.8267 40.6562 10.9125C40.4787 10.9983 40.2746 11.0108 40.088 10.9472C39.7043 10.8048 39.2992 10.728 38.89 10.7202C37.9554 10.7226 37.06 11.0956 36.4001 11.7574C35.7402 12.4191 35.3697 13.3156 35.37 14.2502C35.37 14.4491 35.291 14.6399 35.1503 14.7805C35.0097 14.9212 34.8189 15.0002 34.62 15.0002Z" fill="#FC620E"/>
<path d="M38.89 19.27C37.5591 19.2684 36.2832 18.739 35.3421 17.7979C34.401 16.8568 33.8716 15.5809 33.87 14.25C33.87 14.0511 33.949 13.8603 34.0897 13.7197C34.2303 13.579 34.4211 13.5 34.62 13.5C34.8189 13.5 35.0097 13.579 35.1503 13.7197C35.291 13.8603 35.37 14.0511 35.37 14.25C35.3716 14.8146 35.5088 15.3706 35.7702 15.871C36.0317 16.3714 36.4096 16.8017 36.8721 17.1255C37.3346 17.4493 37.8682 17.6572 38.4279 17.7316C38.9876 17.806 39.5569 17.7447 40.088 17.553C40.2746 17.4894 40.4787 17.5019 40.6562 17.5877C40.8337 17.6735 40.9703 17.8257 41.0364 18.0114C41.1025 18.1971 41.0928 18.4014 41.0095 18.5801C40.9261 18.7587 40.7758 18.8974 40.591 18.966C40.0456 19.1626 39.4698 19.2654 38.89 19.27Z" fill="#FC620E"/>
<path d="M40.39 24.9698H40.34C40.1411 24.9698 39.9503 24.8907 39.8096 24.7501C39.669 24.6094 39.59 24.4187 39.59 24.2198V18.2598C39.59 18.0609 39.669 17.8701 39.8096 17.7294C39.9503 17.5888 40.1411 17.5098 40.34 17.5098C40.5389 17.5098 40.7296 17.5888 40.8703 17.7294C41.0109 17.8701 41.09 18.0609 41.09 18.2598V24.0328C41.1067 24.0937 41.1151 24.1566 41.115 24.2198C41.1176 24.3169 41.1009 24.4136 41.0657 24.5041C41.0305 24.5947 40.9776 24.6773 40.9101 24.7471C40.8426 24.817 40.7618 24.8727 40.6725 24.9109C40.5832 24.9491 40.4871 24.9691 40.39 24.9698Z" fill="#FC620E"/>
<path d="M40.389 29.2032C40.1901 29.2032 39.9994 29.1242 39.8587 28.9836C39.7181 28.8429 39.639 28.6521 39.639 28.4532V24.1782C39.639 23.9793 39.7181 23.7885 39.8587 23.6479C39.9994 23.5072 40.1901 23.4282 40.389 23.4282H46.349C46.5479 23.4282 46.7387 23.5072 46.8794 23.6479C47.02 23.7885 47.099 23.9793 47.099 24.1782C47.099 24.3771 47.02 24.5679 46.8794 24.7086C46.7387 24.8492 46.5479 24.9282 46.349 24.9282H41.139V28.4532C41.139 28.6521 41.06 28.8429 40.9194 28.9836C40.7787 29.1242 40.588 29.2032 40.389 29.2032Z" fill="#FC620E"/>
<path d="M44.663 33.4771C44.4641 33.4771 44.2734 33.3981 44.1327 33.2575C43.9921 33.1168 43.913 32.926 43.913 32.7271C43.912 31.7928 43.5404 30.8971 42.8797 30.2365C42.2191 29.5758 41.3233 29.2042 40.389 29.2031C40.1901 29.2031 39.9994 29.1241 39.8587 28.9835C39.7181 28.8428 39.639 28.652 39.639 28.4531C39.639 28.2542 39.7181 28.0634 39.8587 27.9228C39.9994 27.7821 40.1901 27.7031 40.389 27.7031C41.721 27.7047 42.998 28.2345 43.9398 29.1764C44.8816 30.1182 45.4114 31.3952 45.413 32.7271C45.413 32.926 45.334 33.1168 45.1934 33.2575C45.0527 33.3981 44.8619 33.4771 44.663 33.4771Z" fill="#FC620E"/>
<path d="M40.389 37.7511C40.1901 37.7511 39.9994 37.672 39.8587 37.5314C39.7181 37.3907 39.639 37.2 39.639 37.0011C39.639 36.8021 39.7181 36.6114 39.8587 36.4707C39.9994 36.3301 40.1901 36.2511 40.389 36.2511C41.3233 36.25 42.2191 35.8784 42.8797 35.2177C43.5404 34.5571 43.912 33.6614 43.913 32.7271C43.913 32.5281 43.9921 32.3374 44.1327 32.1967C44.2734 32.0561 44.4641 31.9771 44.663 31.9771C44.8619 31.9771 45.0527 32.0561 45.1934 32.1967C45.334 32.3374 45.413 32.5281 45.413 32.7271C45.4114 34.059 44.8816 35.336 43.9398 36.2778C42.998 37.2196 41.721 37.7495 40.389 37.7511Z" fill="#FC620E"/>
<path d="M60 43.7502H40.389C40.1901 43.7502 39.9994 43.6712 39.8587 43.5306C39.7181 43.3899 39.639 43.1991 39.639 43.0002V37.0012C39.639 36.8023 39.7181 36.6115 39.8587 36.4709C39.9994 36.3302 40.1901 36.2512 40.389 36.2512C40.588 36.2512 40.7787 36.3302 40.9194 36.4709C41.06 36.6115 41.139 36.8023 41.139 37.0012V42.2502H59.25V24.9282H54.375C54.1761 24.9282 53.9854 24.8492 53.8447 24.7086C53.7041 24.5679 53.625 24.3771 53.625 24.1782C53.625 23.9793 53.7041 23.7885 53.8447 23.6479C53.9854 23.5072 54.1761 23.4282 54.375 23.4282H60C60.199 23.4282 60.3897 23.5072 60.5304 23.6479C60.671 23.7885 60.75 23.9793 60.75 24.1782V43.0002C60.75 43.1991 60.671 43.3899 60.5304 43.5306C60.3897 43.6712 60.199 43.7502 60 43.7502Z" fill="#FC620E"/>
<path d="M54.3751 24.928C54.255 24.928 54.1366 24.8992 54.03 24.844C53.9233 24.7888 53.8315 24.7088 53.7622 24.6107C53.6929 24.5126 53.6482 24.3993 53.6318 24.2803C53.6154 24.1613 53.6279 24.0402 53.6681 23.927C53.8084 23.5513 53.8825 23.1541 53.8871 22.753C53.886 21.8185 53.5142 20.9227 52.8534 20.262C52.1925 19.6013 51.2965 19.2298 50.3621 19.229C50.1631 19.229 49.9724 19.15 49.8317 19.0093C49.6911 18.8687 49.6121 18.6779 49.6121 18.479C49.6121 18.2801 49.6911 18.0893 49.8317 17.9487C49.9724 17.808 50.1631 17.729 50.3621 17.729C51.6942 17.7303 52.9714 18.26 53.9135 19.2019C54.8555 20.1438 55.3855 21.4209 55.3871 22.753C55.3834 23.3255 55.2802 23.8929 55.0821 24.43C55.03 24.5758 54.9341 24.702 54.8076 24.7912C54.681 24.8803 54.5299 24.9281 54.3751 24.928Z" fill="#FC620E"/>
<path d="M46.35 24.928C46.1952 24.9281 46.0441 24.8803 45.9175 24.7912C45.7909 24.702 45.695 24.5758 45.643 24.43C45.4448 23.8929 45.3416 23.3255 45.338 22.753C45.3396 21.421 45.8694 20.1441 46.8112 19.2023C47.7531 18.2604 49.03 17.7306 50.362 17.729C50.5609 17.729 50.7517 17.808 50.8923 17.9487C51.033 18.0893 51.112 18.2801 51.112 18.479C51.112 18.6779 51.033 18.8687 50.8923 19.0093C50.7517 19.15 50.5609 19.229 50.362 19.229C49.4277 19.2301 48.532 19.6017 47.8713 20.2623C47.2107 20.923 46.839 21.8187 46.838 22.753C46.8422 23.154 46.916 23.5512 47.056 23.927C47.0962 24.0401 47.1086 24.1612 47.0923 24.2801C47.0759 24.399 47.0313 24.5122 46.9621 24.6103C46.893 24.7083 46.8013 24.7884 46.6947 24.8437C46.5882 24.899 46.47 24.9279 46.35 24.928ZM15.61 44.01C15.47 44.0101 15.3327 43.971 15.2138 43.8971C15.0949 43.8232 14.999 43.7176 14.937 43.592L9.54699 32.682C9.45906 32.5038 9.44548 32.2979 9.50923 32.1096C9.57298 31.9214 9.70885 31.7661 9.88699 31.678L15.277 29.008C15.3653 28.9635 15.4616 28.9368 15.5603 28.9297C15.6589 28.9225 15.758 28.9349 15.8519 28.9662C15.9457 28.9975 16.0325 29.0471 16.1071 29.112C16.1817 29.177 16.2427 29.256 16.2867 29.3447C16.3306 29.4333 16.3565 29.5298 16.363 29.6285C16.3695 29.7272 16.3564 29.8262 16.3245 29.9199C16.2925 30.0135 16.2424 30.0999 16.1769 30.174C16.1114 30.2482 16.0319 30.3087 15.943 30.352L11.225 32.689L16.282 42.928C16.3384 43.0423 16.3648 43.1691 16.3586 43.2964C16.3524 43.4238 16.3139 43.5474 16.2466 43.6557C16.1793 43.764 16.0856 43.8534 15.9742 43.9153C15.8628 43.9773 15.7375 44.0099 15.61 44.01Z" fill="#FC620E"/>
<path d="M19.454 32.8129C18.5151 32.8133 17.5948 32.5513 16.7969 32.0566C15.999 31.5618 15.3551 30.854 14.938 30.0129C14.8934 29.9246 14.8668 29.8283 14.8596 29.7297C14.8525 29.631 14.8649 29.5319 14.8962 29.438C14.9275 29.3442 14.977 29.2575 15.042 29.1828C15.1069 29.1082 15.186 29.0472 15.2747 29.0033C15.3633 28.9594 15.4598 28.9334 15.5585 28.9269C15.6572 28.9204 15.7562 28.9335 15.8498 28.9655C15.9435 28.9974 16.0299 29.0476 16.104 29.113C16.1782 29.1785 16.2387 29.258 16.282 29.3469C16.6973 30.1848 17.4279 30.8238 18.3136 31.1239C19.1993 31.424 20.1679 31.3608 21.007 30.9479C21.0953 30.9034 21.1916 30.8768 21.2903 30.8696C21.3889 30.8624 21.488 30.8749 21.5819 30.9062C21.6757 30.9375 21.7625 30.987 21.8371 31.052C21.9117 31.1169 21.9727 31.196 22.0166 31.2846C22.0606 31.3733 22.0865 31.4697 22.093 31.5684C22.0995 31.6672 22.0864 31.7662 22.0545 31.8598C22.0225 31.9534 21.9724 32.0398 21.9069 32.114C21.8414 32.1882 21.7619 32.2486 21.673 32.2919C20.9835 32.6347 20.224 32.813 19.454 32.8129Z" fill="#FC620E"/>
<path d="M21.34 32.3699C21.1711 32.3697 21.0072 32.3124 20.8749 32.2075C20.7426 32.1025 20.6496 31.9559 20.611 31.7915C20.5723 31.6271 20.5903 31.4545 20.662 31.3015C20.7337 31.1486 20.8549 31.0244 21.006 30.9489C21.8422 30.5316 22.4791 29.8001 22.7774 28.9145C23.0757 28.0288 23.0112 27.0611 22.598 26.2229C22.5535 26.1346 22.5269 26.0383 22.5197 25.9396C22.5125 25.841 22.5249 25.7419 22.5562 25.648C22.5875 25.5542 22.6371 25.4674 22.702 25.3928C22.767 25.3182 22.8461 25.2572 22.9347 25.2132C23.0233 25.1693 23.1198 25.1434 23.2185 25.1369C23.3172 25.1304 23.4163 25.1435 23.5099 25.1754C23.6035 25.2074 23.6899 25.2575 23.7641 25.323C23.8382 25.3885 23.8987 25.468 23.942 25.5569C24.5311 26.7513 24.6233 28.1304 24.1982 29.3926C23.7732 30.6547 22.8656 31.6972 21.674 32.2919C21.5703 32.3437 21.4559 32.3704 21.34 32.3699Z" fill="#FC620E"/>
<path d="M29.75 30.0898C29.6102 30.0898 29.4733 30.0507 29.3545 29.9771C29.2358 29.9034 29.14 29.798 29.078 29.6728L26.77 25.0048L23.6 26.5628C23.4225 26.6423 23.2212 26.6498 23.0383 26.5837C22.8555 26.5176 22.7054 26.3831 22.6198 26.2086C22.5342 26.034 22.5198 25.833 22.5795 25.648C22.6392 25.463 22.7684 25.3084 22.94 25.2168L26.777 23.3278C26.8653 23.2841 26.9613 23.2582 27.0596 23.2517C27.1579 23.2451 27.2566 23.258 27.3499 23.2896C27.4432 23.3211 27.5294 23.3708 27.6036 23.4357C27.6777 23.5006 27.7383 23.5794 27.782 23.6678L30.422 29.0068C30.4786 29.1211 30.5052 29.248 30.4991 29.3755C30.493 29.503 30.4545 29.6268 30.3872 29.7352C30.3199 29.8436 30.2261 29.9331 30.1146 29.9952C30.0031 30.0572 29.8776 30.0898 29.75 30.0898Z" fill="#FC620E"/>
<path d="M36.63 31.1702C36.4894 31.1702 36.3518 31.1308 36.2326 31.0563C36.1134 30.9819 36.0176 30.8755 35.956 30.7492C35.6337 30.0806 35.1057 29.5327 34.4494 29.1859C33.7931 28.8391 33.043 28.7117 32.3089 28.8222C31.9599 28.873 31.6205 28.9758 31.3019 29.1272C31.282 29.1367 31.2616 29.1454 31.2409 29.1532C30.8851 29.3338 30.5628 29.574 30.2879 29.8632C30.2193 29.9339 30.1373 29.9903 30.0469 30.0293C29.9564 30.0683 29.8591 30.0891 29.7606 30.0905C29.662 30.0919 29.5642 30.0738 29.4726 30.0374C29.3811 30.001 29.2976 29.9469 29.2269 29.8782C29.1563 29.8096 29.0999 29.7276 29.0609 29.6371C29.0219 29.5467 29.0011 29.4494 28.9997 29.3508C28.9983 29.2523 29.0163 29.1545 29.0528 29.0629C29.0892 28.9714 29.1433 28.8879 29.2119 28.8172C29.6057 28.4031 30.0691 28.0613 30.5809 27.8072C30.6039 27.7952 30.6309 27.7832 30.6609 27.7722C31.8504 27.2056 33.2155 27.1313 34.4594 27.5655C35.7033 27.9997 36.7256 28.9074 37.304 30.0912C37.3598 30.2056 37.3856 30.3322 37.3789 30.4593C37.3723 30.5864 37.3335 30.7097 37.2661 30.8176C37.1986 30.9255 37.1049 31.0145 36.9936 31.0762C36.8823 31.1379 36.7572 31.1702 36.63 31.1702Z" fill="#FC620E"/>
<path d="M33.299 37.2898C33.1084 37.2897 32.9249 37.2169 32.786 37.0863C32.6471 36.9558 32.5631 36.7772 32.5512 36.5869C32.5392 36.3967 32.6001 36.209 32.7216 36.062C32.843 35.9151 33.0159 35.8199 33.205 35.7958C33.6057 35.7565 33.9964 35.6468 34.359 35.4718C34.7744 35.2677 35.1454 34.9836 35.4507 34.6358C35.7561 34.2879 35.9898 33.8833 36.1384 33.445C36.287 33.0067 36.3477 32.5433 36.3169 32.0815C36.2861 31.6197 36.1645 31.1685 35.959 30.7538C35.8763 30.5766 35.866 30.3741 35.9305 30.1894C35.9949 30.0048 36.1289 29.8526 36.304 29.7653C36.479 29.678 36.6812 29.6626 36.8675 29.7223C37.0537 29.782 37.2093 29.9121 37.301 30.0848C37.5942 30.6756 37.7681 31.3183 37.8127 31.9763C37.8574 32.6343 37.7718 33.2946 37.561 33.9195C37.3501 34.5444 37.0181 35.1216 36.584 35.618C36.1499 36.1145 35.6222 36.5205 35.031 36.8128C34.5176 37.0647 33.9638 37.2241 33.395 37.2838C33.3632 37.2878 33.3311 37.2898 33.299 37.2898Z" fill="#FC620E"/>
<path d="M19.19 51.2498C19.05 51.2499 18.9128 51.2108 18.7938 51.1369C18.6749 51.063 18.579 50.9574 18.517 50.8318L17.447 48.6618C17.4035 48.5734 17.3778 48.4773 17.3714 48.379C17.365 48.2807 17.378 48.1821 17.4098 48.0888C17.4415 47.9956 17.4912 47.9094 17.5562 47.8354C17.6212 47.7614 17.7002 47.7008 17.7885 47.6573C17.8769 47.6138 17.973 47.5881 18.0713 47.5817C18.1696 47.5753 18.2682 47.5883 18.3615 47.62C18.4548 47.6517 18.5409 47.7015 18.615 47.7665C18.689 47.8315 18.7495 47.9104 18.793 47.9988L19.531 49.4948L35.075 41.8098L32.628 36.8728C32.5835 36.7845 32.5569 36.6882 32.5497 36.5895C32.5425 36.4909 32.555 36.3918 32.5862 36.2979C32.6175 36.2041 32.6671 36.1173 32.732 36.0427C32.797 35.9681 32.8761 35.9071 32.9647 35.8631C33.0534 35.8192 33.1498 35.7933 33.2485 35.7868C33.3473 35.7803 33.4463 35.7934 33.5399 35.8253C33.6335 35.8573 33.7199 35.9074 33.7941 35.9729C33.8683 36.0384 33.9287 36.1179 33.972 36.2068L36.752 41.8168C36.7957 41.9051 36.8216 42.0012 36.8282 42.0995C36.8347 42.1978 36.8218 42.2964 36.7903 42.3898C36.7587 42.4831 36.709 42.5693 36.6441 42.6434C36.5792 42.7175 36.5004 42.7782 36.412 42.8218L19.522 51.1718C19.4189 51.223 19.3052 51.2497 19.19 51.2498ZM13.072 45.9988C12.9194 45.9987 12.7704 45.9521 12.6449 45.865C12.5195 45.778 12.4236 45.6548 12.37 45.5118C12.366 45.5018 11.997 44.5188 11.698 43.9138C11.3803 43.5165 10.9805 43.1925 10.526 42.9638C10.3545 42.8675 10.2277 42.7077 10.173 42.5187C10.1182 42.3298 10.1398 42.127 10.2332 41.9538C10.3266 41.7807 10.4842 41.6512 10.6722 41.5932C10.8601 41.5352 11.0634 41.5534 11.238 41.6438C11.9684 42.0142 12.5903 42.5675 13.043 43.2498C13.376 43.9228 13.758 44.9418 13.774 44.9848C13.8169 45.0984 13.8316 45.2206 13.8168 45.3411C13.8021 45.4615 13.7583 45.5766 13.6893 45.6764C13.6202 45.7763 13.528 45.8578 13.4205 45.9142C13.313 45.9705 13.1934 45.9989 13.072 45.9988Z" fill="#FC620E"/>
<path d="M17.41 54.926C16.4541 54.9315 15.5182 54.652 14.722 54.1231C14.6365 54.0663 14.5634 53.9928 14.5074 53.9068C14.4513 53.8209 14.4135 53.7244 14.396 53.6232C14.3786 53.5221 14.3821 53.4185 14.4062 53.3188C14.4302 53.219 14.4745 53.1252 14.5361 53.0432C14.5977 52.9612 14.6755 52.8926 14.7646 52.8417C14.8537 52.7908 14.9522 52.7586 15.0542 52.7472C15.1562 52.7357 15.2594 52.7453 15.3575 52.7752C15.4557 52.8051 15.5467 52.8547 15.625 52.9211C16.1477 53.2352 16.7426 53.4092 17.3521 53.4264C17.9617 53.4435 18.5654 53.3032 19.105 53.0191C19.7992 52.7099 20.3728 52.1815 20.7377 51.5149C21.1026 50.8483 21.2387 50.0804 21.125 49.329C21.088 49.1351 21.1289 48.9344 21.239 48.7705C21.349 48.6066 21.5192 48.4927 21.7127 48.4534C21.9062 48.4142 22.1073 48.4529 22.2725 48.561C22.4377 48.6691 22.5535 48.838 22.595 49.031C22.7744 50.1059 22.5955 51.2099 22.0857 52.173C21.576 53.1362 20.7637 53.905 19.774 54.3611C19.0409 54.7302 18.2308 54.9237 17.41 54.926Z" fill="#FC620E"/>
<path d="M4 60.4601C3.80109 60.4601 3.61032 60.3811 3.46967 60.2405C3.32902 60.0998 3.25 59.9091 3.25 59.7101V46.6201C3.25007 46.4582 3.30271 46.3006 3.4 46.1711L8.16 39.8011C8.43547 39.4238 8.79465 39.1155 9.20932 38.9004C9.624 38.6852 10.0829 38.5691 10.55 38.5611L13.022 38.5001C13.219 38.5019 13.408 38.5785 13.5506 38.7144C13.6933 38.8503 13.7788 39.0354 13.79 39.2321C13.7924 39.3306 13.7754 39.4286 13.7399 39.5206C13.7044 39.6125 13.6511 39.6965 13.5831 39.7678C13.5151 39.8391 13.4338 39.8964 13.3437 39.9362C13.2536 39.9761 13.1565 39.9978 13.058 40.0001L10.578 40.0601C10.3412 40.064 10.1086 40.1229 9.89863 40.2323C9.68861 40.3416 9.50693 40.4984 9.368 40.6901L4.75 46.8701V58.8361C5.99 58.6431 6.731 58.5111 6.98 58.4521L14.236 53.2991C14.3607 53.2117 14.4748 53.11 14.576 52.9961C14.9173 52.627 15.1174 52.1493 15.141 51.6471C15.1802 50.768 15.539 49.9334 16.15 49.3001L22.49 42.6701C22.8094 42.3361 22.9887 41.8923 22.991 41.4301C22.9918 41.189 22.9434 40.9503 22.8489 40.7285C22.7543 40.5067 22.6155 40.3065 22.441 40.1401C22.1043 39.8163 21.6546 39.6365 21.1874 39.6389C20.7202 39.6413 20.2723 39.8258 19.939 40.1531C18.6892 41.3989 17.4147 42.6195 16.116 43.8141C13.126 46.5341 12.162 47.0391 11.656 47.1741C11.5601 47.2024 11.4596 47.2111 11.3602 47.1999C11.2609 47.1887 11.1649 47.1578 11.0777 47.1089C10.9905 47.0601 10.9139 46.9943 10.8525 46.9154C10.7911 46.8365 10.7461 46.7462 10.7201 46.6497C10.6941 46.5532 10.6877 46.4525 10.7012 46.3534C10.7147 46.2544 10.7478 46.159 10.7987 46.073C10.8495 45.987 10.9171 45.912 10.9973 45.8524C11.0776 45.7928 11.1689 45.7499 11.266 45.7261C11.44 45.6801 12.226 45.3251 15.106 42.7061C16.3889 41.525 17.6481 40.3184 18.883 39.0871C19.4962 38.4861 20.3193 38.1473 21.1779 38.1426C22.0366 38.138 22.8633 38.4678 23.483 39.0621C23.7942 39.3614 24.0433 39.7191 24.2162 40.1147C24.3891 40.5103 24.4824 40.936 24.4906 41.3677C24.4989 41.7994 24.422 42.2284 24.2644 42.6303C24.1068 43.0323 23.8715 43.3992 23.572 43.7101L17.232 50.3401C16.8744 50.7102 16.6642 51.1981 16.641 51.7121C16.6032 52.5613 16.268 53.3702 15.694 53.9971C15.5183 54.1944 15.3203 54.3706 15.104 54.5221L7.754 59.7421C7.574 59.8631 7.444 59.9501 4.113 60.4521C4.07557 60.4575 4.03781 60.4602 4 60.4601Z" fill="#FC620E"/>
</svg>
